<svg xmlns="http://www.w3.org/2000/svg" viewBox="0 0 1200 630">
  <defs>
    <linearGradient id="bg" x1="0%" y1="0%" x2="100%" y2="100%">
      <stop offset="0%" stop-color="#0b162c" />
      <stop offset="50%" stop-color="#050810" />
      <stop offset="100%" stop-color="#0a0818" />
    </linearGradient>
    <linearGradient id="red" x1="0%" y1="0%" x2="100%" y2="0%">
      <stop offset="0%" stop-color="#ef4444" />
      <stop offset="100%" stop-color="#991b1b" />
    </linearGradient>
  </defs>
  <rect width="1200" height="630" fill="url(#bg)" />
  
  <g stroke="#1e293b" stroke-width="1" opacity="0.5">
    <line x1="0" y1="0" x2="1200" y2="0" />
<line x1="0" y1="0" x2="0" y2="630" /><line x1="0" y1="40" x2="1200" y2="40" />
<line x1="60" y1="0" x2="60" y2="630" /><line x1="0" y1="80" x2="1200" y2="80" />
<line x1="120" y1="0" x2="120" y2="630" /><line x1="0" y1="120" x2="1200" y2="120" />
<line x1="180" y1="0" x2="180" y2="630" /><line x1="0" y1="160" x2="1200" y2="160" />
<line x1="240" y1="0" x2="240" y2="630" /><line x1="0" y1="200" x2="1200" y2="200" />
<line x1="300" y1="0" x2="300" y2="630" /><line x1="0" y1="240" x2="1200" y2="240" />
<line x1="360" y1="0" x2="360" y2="630" /><line x1="0" y1="280" x2="1200" y2="280" />
<line x1="420" y1="0" x2="420" y2="630" /><line x1="0" y1="320" x2="1200" y2="320" />
<line x1="480" y1="0" x2="480" y2="630" /><line x1="0" y1="360" x2="1200" y2="360" />
<line x1="540" y1="0" x2="540" y2="630" /><line x1="0" y1="400" x2="1200" y2="400" />
<line x1="600" y1="0" x2="600" y2="630" /><line x1="0" y1="440" x2="1200" y2="440" />
<line x1="660" y1="0" x2="660" y2="630" /><line x1="0" y1="480" x2="1200" y2="480" />
<line x1="720" y1="0" x2="720" y2="630" /><line x1="0" y1="520" x2="1200" y2="520" />
<line x1="780" y1="0" x2="780" y2="630" /><line x1="0" y1="560" x2="1200" y2="560" />
<line x1="840" y1="0" x2="840" y2="630" /><line x1="0" y1="600" x2="1200" y2="600" />
<line x1="900" y1="0" x2="900" y2="630" /><line x1="0" y1="640" x2="1200" y2="640" />
<line x1="960" y1="0" x2="960" y2="630" /><line x1="0" y1="680" x2="1200" y2="680" />
<line x1="1020" y1="0" x2="1020" y2="630" /><line x1="0" y1="720" x2="1200" y2="720" />
<line x1="1080" y1="0" x2="1080" y2="630" /><line x1="0" y1="760" x2="1200" y2="760" />
<line x1="1140" y1="0" x2="1140" y2="630" />
  </g>

  <rect x="100" y="150" width="1000" height="330" rx="24" fill="#0f172a" stroke="#334155" stroke-width="2" />

  <circle cx="280" cy="315" r="100" fill="none" stroke="#1e293b" stroke-width="20" />
  <path d="M 180 315 A 100 100 0 1 1 366 365" fill="none" stroke="url(#red)" stroke-width="20" stroke-linecap="round" />
  <text x="280" y="345" font-family="monospace, Arial" font-size="90" font-weight="900" fill="#ef4444" text-anchor="middle">92</text>
  
  <text x="440" y="260" font-family="serif, Arial" font-size="56" font-weight="800" fill="#ffffff">Computer Programmer</text>
  <text x="440" y="330" font-family="sans-serif, Arial" font-size="36" font-weight="600" fill="#ef4444">CRITICAL AI RISK</text>
  <text x="440" y="410" font-family="sans-serif, Arial" font-size="24" font-weight="400" fill="#94a3b8">Based on Anthropic 2026 Labor Market Research</text>

  <text x="100" y="80" font-family="serif, Arial" font-size="32" font-weight="800" fill="#e2e8f0" letter-spacing="-1">AI Future</text>
</svg>